<svg width="900" height="560" viewBox="0 0 900 560" xmlns="http://www.w3.org/2000/svg" font-family="Arial, sans-serif">
  <defs>
    <marker id="a" viewBox="0 0 10 10" refX="8" refY="5" markerWidth="6" markerHeight="6" orient="auto-start-reverse">
      <path d="M2 1L8 5L2 9" fill="none" stroke="#6b7280" stroke-width="1.5" stroke-linecap="round"/>
    </marker>
  </defs>
  <rect width="900" height="560" fill="#0a0c10" rx="12"/>
  <text x="450" y="34" text-anchor="middle" font-size="15" font-weight="700" fill="#e8eaf0">Diagrama de Componentes — Padroes Arquiteturais</text>
  <text x="450" y="50" text-anchor="middle" font-size="10" fill="#6b7280">MVC + Repository Pattern + Strategy Pattern + Observer Pattern (RP06, RP07)</text>

  <!-- VIEW -->
  <rect x="20" y="64" width="410" height="170" rx="10" fill="#1a1060" stroke="#534AB7" stroke-width="1"/>
  <text x="225" y="85" text-anchor="middle" font-size="12" font-weight="700" fill="#AFA9EC">View (Frontend — React)</text>
  <rect x="36" y="96" width="116" height="50" rx="6" fill="#26215C" stroke="#534AB7" stroke-width="0.5"/>
  <text x="94" y="115" text-anchor="middle" font-size="10" font-weight="600" fill="#AFA9EC">DashboardView</text>
  <text x="94" y="130" text-anchor="middle" font-size="8" fill="#7F77DD">Chart.js — RF07</text>
  <rect x="168" y="96" width="116" height="50" rx="6" fill="#26215C" stroke="#534AB7" stroke-width="0.5"/>
  <text x="226" y="115" text-anchor="middle" font-size="10" font-weight="600" fill="#AFA9EC">AlertView</text>
  <text x="226" y="130" text-anchor="middle" font-size="8" fill="#7F77DD">Observer — RF06</text>
  <rect x="300" y="96" width="116" height="50" rx="6" fill="#26215C" stroke="#534AB7" stroke-width="0.5"/>
  <text x="358" y="115" text-anchor="middle" font-size="10" font-weight="600" fill="#AFA9EC">CompareView</text>
  <text x="358" y="130" text-anchor="middle" font-size="8" fill="#7F77DD">RF04</text>
  <rect x="36" y="158" width="116" height="50" rx="6" fill="#26215C" stroke="#534AB7" stroke-width="0.5"/>
  <text x="94" y="177" text-anchor="middle" font-size="10" font-weight="600" fill="#AFA9EC">ProfileView</text>
  <text x="94" y="192" text-anchor="middle" font-size="8" fill="#7F77DD">Radar chart — RF03</text>
  <rect x="168" y="158" width="116" height="50" rx="6" fill="#26215C" stroke="#534AB7" stroke-width="0.5"/>
  <text x="226" y="177" text-anchor="middle" font-size="10" font-weight="600" fill="#AFA9EC">ImportView</text>
  <text x="226" y="192" text-anchor="middle" font-size="8" fill="#7F77DD">Upload CSV — RF01,02</text>
  <rect x="300" y="158" width="116" height="50" rx="6" fill="#26215C" stroke="#534AB7" stroke-width="0.5"/>
  <text x="358" y="177" text-anchor="middle" font-size="10" font-weight="600" fill="#AFA9EC">LoginView</text>
  <text x="358" y="192" text-anchor="middle" font-size="8" fill="#7F77DD">JWT auth</text>

  <!-- CONTROLLER -->
  <rect x="20" y="250" width="410" height="140" rx="10" fill="#111a14" stroke="#1D9E75" stroke-width="1"/>
  <text x="225" y="271" text-anchor="middle" font-size="12" font-weight="700" fill="#5DCAA5">Controller (FastAPI Routes)</text>
  <rect x="36" y="282" width="116" height="50" rx="6" fill="#0a1a0f" stroke="#1D9E75" stroke-width="0.5"/>
  <text x="94" y="301" text-anchor="middle" font-size="10" font-weight="600" fill="#5DCAA5">AthletesController</text>
  <text x="94" y="316" text-anchor="middle" font-size="8" fill="#1D9E75">RF03,04,05</text>
  <rect x="168" y="282" width="116" height="50" rx="6" fill="#0a1a0f" stroke="#1D9E75" stroke-width="0.5"/>
  <text x="226" y="301" text-anchor="middle" font-size="10" font-weight="600" fill="#5DCAA5">AlertsController</text>
  <text x="226" y="316" text-anchor="middle" font-size="8" fill="#1D9E75">RF06</text>
  <rect x="300" y="282" width="116" height="50" rx="6" fill="#0a1a0f" stroke="#1D9E75" stroke-width="0.5"/>
  <text x="358" y="301" text-anchor="middle" font-size="10" font-weight="600" fill="#5DCAA5">GamesController</text>
  <text x="358" y="316" text-anchor="middle" font-size="8" fill="#1D9E75">RF01,02</text>
  <rect x="36" y="344" width="116" height="36" rx="6" fill="#0a1a0f" stroke="#1D9E75" stroke-width="0.5"/>
  <text x="94" y="357" text-anchor="middle" font-size="10" font-weight="600" fill="#5DCAA5">AuthController</text>
  <text x="94" y="371" text-anchor="middle" font-size="8" fill="#1D9E75">RNF02, RP04</text>
  <rect x="168" y="344" width="248" height="36" rx="6" fill="#0a1a0f" stroke="#1D9E75" stroke-width="0.5"/>
  <text x="292" y="357" text-anchor="middle" font-size="10" font-weight="600" fill="#5DCAA5">ProfilesController</text>
  <text x="292" y="371" text-anchor="middle" font-size="8" fill="#1D9E75">RF03 — Resumo perfis</text>

  <!-- MODEL / SERVICES -->
  <rect x="470" y="64" width="410" height="170" rx="10" fill="#1a1408" stroke="#BA7517" stroke-width="1"/>
  <text x="675" y="85" text-anchor="middle" font-size="12" font-weight="700" fill="#EF9F27">Model / Services (Strategy Pattern)</text>
  <rect x="486" y="96" width="116" height="50" rx="6" fill="#0f0c04" stroke="#BA7517" stroke-width="0.5"/>
  <text x="544" y="115" text-anchor="middle" font-size="10" font-weight="600" fill="#EF9F27">ProfileService</text>
  <text x="544" y="130" text-anchor="middle" font-size="8" fill="#BA7517">IProfileStrategy</text>
  <rect x="618" y="96" width="116" height="50" rx="6" fill="#0f0c04" stroke="#BA7517" stroke-width="0.5"/>
  <text x="676" y="115" text-anchor="middle" font-size="10" font-weight="600" fill="#EF9F27">AnomalyService</text>
  <text x="676" y="130" text-anchor="middle" font-size="8" fill="#BA7517">IAnomalyStrategy</text>
  <rect x="750" y="96" width="116" height="50" rx="6" fill="#0f0c04" stroke="#BA7517" stroke-width="0.5"/>
  <text x="808" y="115" text-anchor="middle" font-size="10" font-weight="600" fill="#EF9F27">AlertService</text>
  <text x="808" y="130" text-anchor="middle" font-size="8" fill="#BA7517">Observer Subject</text>
  <rect x="486" y="158" width="116" height="50" rx="6" fill="#0f0c04" stroke="#BA7517" stroke-width="0.5"/>
  <text x="544" y="177" text-anchor="middle" font-size="10" font-weight="600" fill="#EF9F27">KMeansStrategy</text>
  <text x="544" y="192" text-anchor="middle" font-size="8" fill="#BA7517">scikit-learn</text>
  <rect x="618" y="158" width="116" height="50" rx="6" fill="#0f0c04" stroke="#BA7517" stroke-width="0.5"/>
  <text x="676" y="177" text-anchor="middle" font-size="10" font-weight="600" fill="#EF9F27">IsolationForest</text>
  <text x="676" y="192" text-anchor="middle" font-size="8" fill="#BA7517">scikit-learn</text>
  <rect x="750" y="158" width="116" height="50" rx="6" fill="#0f0c04" stroke="#BA7517" stroke-width="0.5"/>
  <text x="808" y="177" text-anchor="middle" font-size="10" font-weight="600" fill="#EF9F27">ImportService</text>
  <text x="808" y="192" text-anchor="middle" font-size="8" fill="#BA7517">ETL pandas</text>

  <!-- REPOSITORY -->
  <rect x="470" y="250" width="410" height="140" rx="10" fill="#1a0d12" stroke="#993556" stroke-width="1"/>
  <text x="675" y="271" text-anchor="middle" font-size="12" font-weight="700" fill="#ED93B1">Repository Layer (Repository Pattern)</text>
  <rect x="486" y="282" width="116" height="50" rx="6" fill="#0f0608" stroke="#993556" stroke-width="0.5"/>
  <text x="544" y="301" text-anchor="middle" font-size="10" font-weight="600" fill="#ED93B1">AthleteRepo</text>
  <text x="544" y="316" text-anchor="middle" font-size="8" fill="#993556">CRUD SQLAlchemy</text>
  <rect x="618" y="282" width="116" height="50" rx="6" fill="#0f0608" stroke="#993556" stroke-width="0.5"/>
  <text x="676" y="301" text-anchor="middle" font-size="10" font-weight="600" fill="#ED93B1">PerformanceRepo</text>
  <text x="676" y="316" text-anchor="middle" font-size="8" fill="#993556">TimeSeries</text>
  <rect x="750" y="282" width="116" height="50" rx="6" fill="#0f0608" stroke="#993556" stroke-width="0.5"/>
  <text x="808" y="301" text-anchor="middle" font-size="10" font-weight="600" fill="#ED93B1">AlertRepo</text>
  <text x="808" y="316" text-anchor="middle" font-size="8" fill="#993556">Notificacoes</text>
  <rect x="486" y="344" width="380" height="36" rx="6" fill="#0f0608" stroke="#993556" stroke-width="0.5"/>
  <text x="676" y="357" text-anchor="middle" font-size="10" font-weight="600" fill="#ED93B1">ModelRepository</text>
  <text x="676" y="371" text-anchor="middle" font-size="8" fill="#993556">Modelos ML versionados no S3 (RP02)</text>

  <!-- Arrows -->
  <line x1="225" y1="234" x2="225" y2="250" stroke="#6b7280" stroke-width="1.5" marker-end="url(#a)"/>
  <line x1="430" y1="180" x2="470" y2="180" stroke="#6b7280" stroke-width="1.5" marker-end="url(#a)"/>
  <line x1="430" y1="340" x2="470" y2="340" stroke="#6b7280" stroke-width="1.5" marker-end="url(#a)"/>
  <line x1="675" y1="234" x2="675" y2="250" stroke="#6b7280" stroke-width="1.5" marker-end="url(#a)"/>

  <!-- DATA -->
  <rect x="20" y="408" width="860" height="60" rx="10" fill="#160d0d" stroke="#A32D2D" stroke-width="1"/>
  <text x="450" y="430" text-anchor="middle" font-size="12" font-weight="700" fill="#F09595">Infraestrutura — PostgreSQL + Redis + S3 + AWS KMS (RP02, RP04)</text>
  <text x="450" y="450" text-anchor="middle" font-size="10" fill="#A32D2D">ACID transacoes · AES-256-GCM em repouso · TLS 1.3 em transito · JWT HS256 autenticacao</text>

  <line x1="225" y1="390" x2="225" y2="408" stroke="#6b7280" stroke-width="1.5" marker-end="url(#a)"/>
  <line x1="675" y1="390" x2="675" y2="408" stroke="#6b7280" stroke-width="1.5" marker-end="url(#a)"/>

  <!-- Patterns legend -->
  <text x="20" y="494" font-size="10" font-weight="700" fill="#e8eaf0">Padroes utilizados:</text>
  <rect x="20" y="502" width="10" height="10" rx="2" fill="#534AB7"/>
  <text x="36" y="511" font-size="9" fill="#6b7280">MVC — separacao View / Controller / Model</text>
  <rect x="280" y="502" width="10" height="10" rx="2" fill="#BA7517"/>
  <text x="296" y="511" font-size="9" fill="#6b7280">Strategy — algoritmos ML intercambiaveis (K-Means / IsoForest)</text>
  <rect x="20" y="520" width="10" height="10" rx="2" fill="#993556"/>
  <text x="36" y="529" font-size="9" fill="#6b7280">Repository — abstrai acesso ao banco (testabilidade)</text>
  <rect x="280" y="520" width="10" height="10" rx="2" fill="#1D9E75"/>
  <text x="296" y="529" font-size="9" fill="#6b7280">Observer — AnomalyService notifica AlertService e frontend</text>
  <text x="880" y="549" text-anchor="end" font-size="9" fill="#374151">AtletaTrack v1.0 — RP06, RP07</text>
</svg>
